# xmcd
#
# Track frame offsets:
#	150
#	85256
#	136424
#	180617
#	202038
#
# Disc length: 3679 seconds
#
# Revision: 0
# Processed by: cddbd v1.4PL0 Copyright (c) Steve Scherf et al.
# Submitted via: audiograbber 1.81.02
#
DISCID=410e5d05
DTITLE=Allman Brothers Band - Cow Palace - 12-31-73 - Disc 4
DYEAR=1900
DGENRE=
TTITLE0=Save My Life
TTITLE1=Blues Jam
TTITLE2=You Don't Love Me
TTITLE3=Will the Circle Be Unbroken
TTITLE4=Mountain Jam
EXTD=
EXTT0=
EXTT1=
EXTT2=
EXTT3=
EXTT4=
PLAYORDER=
